<svg width="457.000000" height="106.000000" viewBox="0 0 457 106" fill="none" xmlns="http://www.w3.org/2000/svg" xmlns:xlink="http://www.w3.org/1999/xlink">
	<desc>
			Created with Pixso.
	</desc>
	<defs/>
	<circle id="Эллипс 1" cx="50.000000" cy="56.000000" r="50.000000" fill="#FFFFFF" fill-opacity="1.000000"/>
	<line id="Линия 1" x1="26.000000" y1="80.000000" x2="26.000000" y2="30.000000" stroke="#424242" stroke-opacity="1.000000" stroke-width="6.000000"/>
	<line id="Линия 2" x1="23.000000" y1="78.000000" x2="73.000000" y2="78.000000" stroke="#424242" stroke-opacity="1.000000" stroke-width="6.000000"/>
	<line id="Линия 1" x1="40.000000" y1="65.000000" x2="40.000000" y2="30.000000" stroke="#424242" stroke-opacity="1.000000" stroke-width="6.000000"/>
	<line id="Линия 2" x1="37.000000" y1="64.000000" x2="73.000000" y2="64.000000" stroke="#424242" stroke-opacity="1.000000" stroke-width="6.000000"/>
	<line id="Линия 1" x1="52.000000" y1="50.000000" x2="52.000000" y2="30.000000" stroke="#424242" stroke-opacity="1.000000" stroke-width="6.000000"/>
	<line id="Линия 2" x1="49.000000" y1="50.000000" x2="72.000000" y2="50.000000" stroke="#424242" stroke-opacity="1.000000" stroke-width="6.000000"/>
	<line id="Линия 3" x1="115.000000" y1="106.000000" x2="115.000000" y2="6.000000" stroke="#FFFFFF" stroke-opacity="1.000000" stroke-width="2.000000"/>
	<path id="Строй Контроль" d="M135.35 55.71Q137.63 57.43 141.77 57.43Q145.6 57.43 147.71 55.92Q148.32 55.48 148.83 54.94Q150.08 53.62 150.69 51.7Q151.55 48.98 151.55 45.43L151.55 42.55L146.42 42.55L146.42 45.43Q146.42 47.73 146.17 49.46Q145.94 51.18 144.98 52.17Q144.02 53.15 141.82 53.15Q139.94 53.15 138.83 52.44Q137.73 51.71 137.25 50.01Q136.78 48.31 136.78 45.38L136.78 29.97Q136.78 27.57 137.08 25.78Q137.4 23.97 138.45 22.99Q139.51 22 141.82 22Q144.07 22 145.03 22.92Q145.07 22.95 145.11 22.99Q146 23.9 146.2 25.48Q146.42 27.14 146.42 29.3L146.42 32.03L151.55 32.03L151.55 28.96Q151.55 25.46 150.62 22.96Q150.02 21.37 148.93 20.24Q148.31 19.61 147.55 19.13Q145.41 17.78 141.77 17.78Q137.63 17.78 135.35 19.39Q134.72 19.84 134.19 20.38Q132.83 21.81 132.18 23.92Q131.3 26.85 131.3 30.79L131.3 44.51Q131.3 48.11 132.18 51.04Q132.79 53.03 134.03 54.47Q134.62 55.15 135.35 55.71ZM248.08 18.11L248.08 57L253.51 57L253.51 38.03L255.57 38.03L263.45 57L268.87 57L260.22 36.59L267.91 18.11L262.49 18.11L255.52 35.4L253.51 35.4L253.51 18.11L248.08 18.11ZM218.57 24.63Q220.02 26.22 223.22 26.22Q226.49 26.22 227.94 24.6Q228.05 24.48 228.14 24.36Q228.29 24.16 228.42 23.96Q229.56 22.19 229.56 19.69L226.53 19.69Q226.53 21.38 225.78 22.34Q225.74 22.4 225.7 22.45Q224.94 23.3 223.22 23.3Q221.53 23.3 220.77 22.47Q220.73 22.42 220.69 22.37Q219.95 21.43 219.9 19.69L216.92 19.69Q216.92 22.19 218.06 23.96Q218.19 24.16 218.34 24.36Q218.45 24.5 218.57 24.63ZM172.91 29.26L172.91 66.11L178.05 66.11L178.05 54.93Q178.96 55.89 180.11 56.64Q180.4 56.83 180.71 56.97Q181.64 57.38 182.76 57.38Q184.99 57.38 186.41 56.3Q186.73 56.07 187 55.78Q188.51 54.16 189.09 51.55Q189.67 48.93 189.67 46L189.67 39.29Q189.67 38.03 189.47 36.29Q189.45 36.12 189.43 35.95Q189.22 34.37 188.65 32.83Q188.17 31.52 187.31 30.55Q187.05 30.26 186.75 30Q186.67 29.92 186.58 29.85Q185.34 28.87 183.33 28.87Q181.55 28.87 180.25 29.64Q178.96 30.41 178.05 31.46L178.05 29.26L172.91 29.26ZM197.1 56.14Q198.88 57.38 201.95 57.38Q205.03 57.38 206.78 56.14Q207.18 55.85 207.53 55.51Q208.7 54.36 209.27 52.59Q210.02 50.28 210.02 47.15L210.02 39.09Q210.02 35.97 209.27 33.67Q208.69 31.86 207.49 30.71Q207.16 30.39 206.78 30.12Q205.03 28.87 201.95 28.87Q198.88 28.87 197.1 30.12Q196.71 30.4 196.37 30.72Q195.16 31.87 194.58 33.67Q193.84 35.97 193.84 39.09L193.84 47.15Q193.84 50.28 194.58 52.59Q195.15 54.35 196.33 55.5Q196.69 55.85 197.1 56.14ZM274.81 56.14Q276.59 57.38 279.66 57.38Q282.74 57.38 284.49 56.14Q284.89 55.85 285.24 55.51Q286.42 54.36 286.99 52.59Q287.74 50.28 287.74 47.15L287.74 39.09Q287.74 35.97 286.99 33.67Q286.41 31.86 285.2 30.71Q284.87 30.39 284.49 30.12Q282.74 28.87 279.66 28.87Q276.59 28.87 274.81 30.12Q274.42 30.4 274.08 30.72Q272.88 31.87 272.29 33.67Q271.55 35.97 271.55 39.09L271.55 47.15Q271.55 50.28 272.29 52.59Q272.87 54.35 274.04 55.5Q274.4 55.85 274.81 56.14ZM331.07 29.26L331.07 66.11L336.21 66.11L336.21 54.93Q337.12 55.89 338.27 56.64Q338.56 56.83 338.87 56.97Q339.8 57.38 340.92 57.38Q343.15 57.38 344.57 56.3Q344.89 56.07 345.16 55.78Q346.67 54.16 347.25 51.55Q347.83 48.93 347.83 46L347.83 39.29Q347.83 38.03 347.63 36.29Q347.61 36.12 347.59 35.95Q347.38 34.37 346.81 32.83Q346.33 31.52 345.47 30.55Q345.21 30.26 344.91 30Q344.83 29.92 344.74 29.85Q343.5 28.87 341.49 28.87Q339.71 28.87 338.41 29.64Q337.12 30.41 336.21 31.46L336.21 29.26L331.07 29.26ZM355.26 56.14Q357.04 57.38 360.11 57.38Q363.19 57.38 364.94 56.14Q365.34 55.85 365.69 55.51Q366.86 54.36 367.43 52.59Q368.18 50.28 368.18 47.15L368.18 39.09Q368.18 35.97 367.43 33.67Q366.85 31.86 365.65 30.71Q365.32 30.39 364.94 30.12Q363.19 28.87 360.11 28.87Q357.04 28.87 355.26 30.12Q354.87 30.4 354.53 30.72Q353.32 31.87 352.74 33.67Q352 35.97 352 39.09L352 47.15Q352 50.28 352.74 52.59Q353.31 54.35 354.49 55.5Q354.85 55.85 355.26 56.14ZM159.42 33.09L159.42 57L164.57 57L164.57 33.09L169.79 33.09L169.79 29.26L154.24 29.26L154.24 33.09L159.42 33.09ZM214.72 29.26L214.72 57L218.9 57L227.2 38.17L227.2 57L231.43 57L231.43 29.26L227.4 29.26L219.05 47.92L219.05 29.26L214.72 29.26ZM292.43 29.26L292.43 57L297.57 57L297.57 44.66L304.15 44.66L304.15 57L309.28 57L309.28 29.26L304.15 29.26L304.15 40.92L297.57 40.92L297.57 29.26L292.43 29.26ZM317.58 33.09L317.58 57L322.73 57L322.73 33.09L327.95 33.09L327.95 29.26L312.4 29.26L312.4 33.09L317.58 33.09ZM370.54 53.35L370.54 57.23L371.11 57.23Q373.65 57.23 375.26 56.51Q375.58 56.37 375.88 56.19Q377.06 55.45 377.82 54.05Q378.79 52.3 379.24 49.18Q379.7 46.05 379.93 41.3L380.37 33.14L385.27 33.14L385.27 57L390.4 57L390.4 29.26L375.86 29.26L375.24 41.3Q375.05 44.81 374.8 47.14Q374.57 49.46 374.11 50.83Q373.65 52.19 372.81 52.78Q371.98 53.35 370.54 53.35ZM395.59 29.26L395.59 57L401.01 57Q404.03 57 406.14 56.56Q408.27 56.13 409.55 55.17Q410.1 54.76 410.52 54.26Q411.1 53.55 411.43 52.65Q412 51.09 412 48.84Q412 46.39 411.43 44.83Q411.02 43.71 410.26 42.94Q409.96 42.63 409.6 42.38Q408.36 41.49 406.37 41.14Q404.37 40.78 401.54 40.72L400.72 40.72L400.72 29.26L395.59 29.26ZM203.86 52.94Q203.24 53.58 201.95 53.58Q200.66 53.58 200.02 52.94Q199.92 52.84 199.84 52.73Q199.22 51.86 199.09 50.44Q198.97 49.03 198.97 47.49L198.97 38.81Q198.97 37.21 199.09 35.83Q199.22 34.44 199.84 33.55Q199.94 33.4 200.07 33.28Q200.71 32.66 201.95 32.66Q203.19 32.66 203.82 33.28Q203.94 33.4 204.04 33.55Q204.65 34.44 204.76 35.83Q204.88 37.21 204.88 38.81L204.88 47.49Q204.88 49.03 204.76 50.44Q204.65 51.86 204.04 52.73Q203.96 52.84 203.86 52.94ZM281.58 52.94Q280.96 53.58 279.66 53.58Q278.37 53.58 277.73 52.94Q277.63 52.84 277.55 52.73Q276.93 51.86 276.8 50.44Q276.69 49.03 276.69 47.49L276.69 38.81Q276.69 37.21 276.8 35.83Q276.93 34.44 277.55 33.55Q277.66 33.4 277.78 33.28Q278.42 32.66 279.66 32.66Q280.91 32.66 281.53 33.28Q281.65 33.4 281.75 33.55Q282.36 34.44 282.47 35.83Q282.59 37.21 282.59 38.81L282.59 47.49Q282.59 49.03 282.47 50.44Q282.36 51.86 281.75 52.73Q281.67 52.84 281.58 52.94ZM362.02 52.94Q361.4 53.58 360.11 53.58Q358.82 53.58 358.18 52.94Q358.08 52.84 358 52.73Q357.38 51.86 357.25 50.44Q357.13 49.03 357.13 47.49L357.13 38.81Q357.13 37.21 357.25 35.83Q357.38 34.44 358 33.55Q358.1 33.4 358.23 33.28Q358.87 32.66 360.11 32.66Q361.35 32.66 361.98 33.28Q362.1 33.4 362.2 33.55Q362.81 34.44 362.92 35.83Q363.04 37.21 363.04 38.81L363.04 47.49Q363.04 49.03 362.92 50.44Q362.81 51.86 362.2 52.73Q362.12 52.84 362.02 52.94ZM183.2 52.92Q182.65 53.35 181.75 53.35Q180.6 53.35 179.69 52.99Q178.77 52.62 178.05 52.1L178.05 34.34Q178.73 33.77 179.63 33.33Q180.1 33.11 180.6 33Q181.07 32.9 181.55 32.9Q182.58 32.9 183.19 33.41Q183.37 33.56 183.52 33.77Q184.15 34.62 184.34 36.09Q184.53 37.55 184.53 39.29L184.53 46Q184.53 48.02 184.39 49.71Q184.25 51.38 183.67 52.37Q183.48 52.7 183.2 52.92ZM341.36 52.92Q340.81 53.35 339.91 53.35Q338.76 53.35 337.85 52.99Q336.93 52.62 336.21 52.1L336.21 34.34Q336.89 33.77 337.79 33.33Q338.26 33.11 338.76 33Q339.23 32.9 339.71 32.9Q340.74 32.9 341.35 33.41Q341.53 33.56 341.68 33.77Q342.31 34.62 342.5 36.09Q342.69 37.55 342.69 39.29L342.69 46Q342.69 48.02 342.55 49.71Q342.41 51.38 341.83 52.37Q341.64 52.7 341.36 52.92ZM401.01 53.97L400.72 53.97L400.72 43.75L401.26 43.75Q403.75 43.75 405.07 44.26Q406.12 44.66 406.65 45.42Q406.79 45.62 406.89 45.84Q407.4 46.92 407.4 48.79Q407.4 50.85 406.81 51.98Q406.66 52.28 406.45 52.53Q405.87 53.22 404.84 53.54Q403.46 53.97 401.01 53.97Z" fill="#FFFDFD" fill-opacity="1.000000" fill-rule="evenodd"/>
	<path id="Управление ресурсами предприятия" d="M130.27 92.86L130.27 94.95Q131.88 95.04 132.87 94.92Q133.86 94.8 134.42 94.44Q134.64 94.3 134.81 94.11Q135.08 93.83 135.25 93.45Q135.52 92.83 135.67 91.95Q135.83 91.06 136.07 89.89L139.55 72.55L136.96 72.55L135.5 80.89L134.64 87L133.65 80.83L132.02 72.55L129.45 72.55L133.29 89.83Q133.44 90.72 133.44 91.36Q133.44 92 133.16 92.36Q132.89 92.74 132.2 92.86Q131.52 92.98 130.27 92.86ZM151.79 78.13L151.79 96.55L154.36 96.55L154.36 90.96Q154.82 91.44 155.39 91.82Q155.54 91.91 155.69 91.98Q156.16 92.19 156.72 92.19Q157.83 92.19 158.54 91.65Q158.7 91.53 158.84 91.39Q159.59 90.58 159.88 89.27Q160.17 87.96 160.17 86.5L160.17 83.14Q160.17 82.51 160.07 81.64Q160.06 81.56 160.05 81.47Q159.95 80.68 159.66 79.91Q159.42 79.26 158.99 78.77Q158.86 78.63 158.71 78.5Q158.67 78.46 158.63 78.42Q158.01 77.93 157 77.93Q156.11 77.93 155.46 78.32Q154.82 78.7 154.36 79.23L154.36 78.13L151.79 78.13ZM164.09 92.02Q164.51 92.19 164.99 92.19Q165.97 92.19 166.6 91.72Q166.75 91.62 166.88 91.48Q167.56 90.77 167.8 89.96Q167.85 90.44 167.96 91.02Q168.06 91.61 168.14 92L170.49 92Q170.44 91.54 170.38 91.02Q170.32 90.51 170.29 89.91Q170.25 89.31 170.25 88.66L170.25 82.32Q170.25 80.19 169.38 79.06Q169.31 78.96 169.22 78.87Q168.34 77.93 166.46 77.93Q164.42 77.93 163.41 78.95Q163.37 78.99 163.34 79.02Q162.33 80.11 162.28 82.42L164.82 82.51L164.82 81.82Q164.82 81.22 164.97 80.77Q165.1 80.37 165.38 80.14Q165.41 80.11 165.44 80.09Q165.76 79.85 166.29 79.85Q166.89 79.85 167.19 80.13Q167.49 80.41 167.58 80.96Q167.68 81.51 167.68 82.34L167.68 83.33Q166.58 83.76 165.59 84.22Q164.59 84.68 163.83 85.29Q163.53 85.53 163.28 85.82Q162.9 86.25 162.64 86.79Q162.21 87.68 162.21 88.97Q162.21 89.38 162.3 89.76Q162.39 90.15 162.57 90.52Q162.83 91.05 163.24 91.45Q163.39 91.59 163.55 91.72Q163.8 91.91 164.09 92.02ZM195.5 91.56Q196.39 92.19 198.02 92.19Q199.91 92.19 200.82 91.24Q200.94 91.12 201.04 90.99Q201.93 89.79 201.93 87.7L201.93 87.17L199.43 87.17L199.43 88.01Q199.43 88.71 199.32 89.22Q199.22 89.74 198.92 90.01Q198.62 90.29 198.05 90.29Q197.49 90.29 197.14 90.04Q196.8 89.79 196.64 89.26Q196.48 88.73 196.48 87.89L196.48 85.1L201.95 85.1L201.95 83.98Q201.95 82.08 201.69 80.73Q201.43 79.39 200.62 78.67Q200.61 78.66 200.6 78.65Q199.77 77.93 198.02 77.93Q196.43 77.93 195.53 78.56Q195.39 78.66 195.26 78.77Q194.58 79.38 194.27 80.41Q193.91 81.63 193.91 83.48L193.91 86.65Q193.91 88.44 194.26 89.68Q194.56 90.74 195.26 91.36Q195.37 91.47 195.5 91.56ZM227.58 91.56Q228.48 92.19 230.11 92.19Q232 92.19 232.91 91.24Q233.03 91.12 233.13 90.99Q234.02 89.79 234.02 87.7L234.02 87.17L231.52 87.17L231.52 88.01Q231.52 88.71 231.41 89.22Q231.31 89.74 231.01 90.01Q230.71 90.29 230.13 90.29Q229.58 90.29 229.23 90.04Q228.89 89.79 228.73 89.26Q228.57 88.73 228.57 87.89L228.57 85.1L234.04 85.1L234.04 83.98Q234.04 82.08 233.78 80.73Q233.52 79.39 232.71 78.67Q232.7 78.66 232.69 78.65Q231.86 77.93 230.11 77.93Q228.52 77.93 227.62 78.56Q227.48 78.66 227.35 78.77Q226.67 79.38 226.36 80.41Q226 81.63 226 83.48L226 86.65Q226 88.44 226.35 89.68Q226.65 90.74 227.35 91.36Q227.46 91.47 227.58 91.56ZM241.87 78.13L241.87 96.55L244.43 96.55L244.43 90.96Q244.89 91.44 245.46 91.82Q245.61 91.91 245.77 91.98Q246.23 92.19 246.79 92.19Q247.91 92.19 248.62 91.65Q248.77 91.53 248.91 91.39Q249.67 90.58 249.95 89.27Q250.25 87.96 250.25 86.5L250.25 83.14Q250.25 82.51 250.15 81.64Q250.14 81.56 250.13 81.47Q250.02 80.68 249.74 79.91Q249.5 79.26 249.06 78.77Q248.93 78.63 248.79 78.5Q248.74 78.46 248.7 78.42Q248.08 77.93 247.08 77.93Q246.18 77.93 245.53 78.32Q244.89 78.7 244.43 79.23L244.43 78.13L241.87 78.13ZM253.89 91.56Q254.78 92.19 256.41 92.19Q258.31 92.19 259.22 91.24Q259.33 91.12 259.43 90.99Q260.32 89.79 260.32 87.7L260.32 87.17L257.83 87.17L257.83 88.01Q257.83 88.71 257.71 89.22Q257.61 89.74 257.31 90.01Q257.01 90.29 256.44 90.29Q255.88 90.29 255.54 90.04Q255.19 89.79 255.03 89.26Q254.87 88.73 254.87 87.89L254.87 85.1L260.35 85.1L260.35 83.98Q260.35 82.08 260.08 80.73Q259.82 79.39 259.01 78.67Q259 78.66 258.99 78.65Q258.17 77.93 256.41 77.93Q254.83 77.93 253.92 78.56Q253.78 78.66 253.65 78.77Q252.97 79.38 252.66 80.41Q252.31 81.63 252.31 83.48L252.31 86.65Q252.31 88.44 252.65 89.68Q252.95 90.74 253.65 91.36Q253.76 91.47 253.89 91.56ZM263.89 91.5Q264.77 92.19 266.47 92.19Q267.95 92.19 268.78 91.66Q269.07 91.48 269.3 91.24Q269.72 90.78 269.93 90.13Q270.26 89.11 270.26 87.72L270.26 86.76L267.93 86.76L267.93 87.89Q267.93 88.58 267.85 89.14Q267.77 89.69 267.46 89.99Q267.16 90.29 266.52 90.29Q265.89 90.29 265.54 89.98Q265.41 89.86 265.31 89.69Q264.98 89.09 264.98 87.31L264.98 82.95Q264.98 81.77 265.08 81.09Q265.19 80.41 265.53 80.12Q265.87 79.83 266.49 79.83Q267.07 79.83 267.38 80.07Q267.69 80.31 267.81 80.83Q267.93 81.36 267.93 82.27L267.93 83.11L270.26 83.11L270.26 82.3Q270.26 80.86 269.95 79.89Q269.76 79.3 269.38 78.89Q269.13 78.62 268.8 78.42Q267.98 77.93 266.47 77.93Q264.79 77.93 263.91 78.59Q263.77 78.7 263.64 78.82Q262.99 79.45 262.72 80.49Q262.41 81.72 262.41 83.48L262.41 86.67Q262.41 88.32 262.71 89.57Q262.96 90.6 263.6 91.25Q263.74 91.38 263.89 91.5ZM281.95 78.13L281.95 96.55L284.51 96.55L284.51 90.96Q284.97 91.44 285.54 91.82Q285.69 91.91 285.85 91.98Q286.31 92.19 286.87 92.19Q287.99 92.19 288.7 91.65Q288.85 91.53 288.99 91.39Q289.75 90.58 290.03 89.27Q290.32 87.96 290.32 86.5L290.32 83.14Q290.32 82.51 290.23 81.64Q290.22 81.56 290.21 81.47Q290.1 80.68 289.82 79.91Q289.58 79.26 289.14 78.77Q289.01 78.63 288.87 78.5Q288.82 78.46 288.78 78.42Q288.16 77.93 287.16 77.93Q286.26 77.93 285.61 78.32Q284.97 78.7 284.51 79.23L284.51 78.13L281.95 78.13ZM293.86 91.5Q294.74 92.19 296.44 92.19Q297.93 92.19 298.76 91.66Q299.04 91.48 299.27 91.24Q299.7 90.78 299.91 90.13Q300.24 89.11 300.24 87.72L300.24 86.76L297.91 86.76L297.91 87.89Q297.91 88.58 297.82 89.14Q297.74 89.69 297.44 89.99Q297.14 90.29 296.49 90.29Q295.87 90.29 295.52 89.98Q295.38 89.86 295.29 89.69Q294.95 89.09 294.95 87.31L294.95 82.95Q294.95 81.77 295.06 81.09Q295.17 80.41 295.5 80.12Q295.84 79.83 296.46 79.83Q297.04 79.83 297.35 80.07Q297.67 80.31 297.78 80.83Q297.91 81.36 297.91 82.27L297.91 83.11L300.24 83.11L300.24 82.3Q300.24 80.86 299.92 79.89Q299.73 79.3 299.35 78.89Q299.11 78.62 298.78 78.42Q297.95 77.93 296.44 77.93Q294.76 77.93 293.89 78.59Q293.74 78.7 293.62 78.82Q292.96 79.45 292.7 80.49Q292.39 81.72 292.39 83.48L292.39 86.67Q292.39 88.32 292.69 89.57Q292.94 90.6 293.58 91.25Q293.71 91.38 293.86 91.5ZM304.1 92.02Q304.52 92.19 305.01 92.19Q305.98 92.19 306.61 91.72Q306.76 91.62 306.89 91.48Q307.58 90.77 307.82 89.96Q307.87 90.44 307.98 91.02Q308.08 91.61 308.16 92L310.51 92Q310.46 91.54 310.4 91.02Q310.34 90.51 310.3 89.91Q310.27 89.31 310.27 88.66L310.27 82.32Q310.27 80.19 309.4 79.06Q309.32 78.96 309.23 78.87Q308.35 77.93 306.48 77.93Q304.43 77.93 303.42 78.95Q303.39 78.99 303.36 79.02Q302.35 80.11 302.3 82.42L304.84 82.51L304.84 81.82Q304.84 81.22 304.99 80.77Q305.12 80.37 305.39 80.14Q305.42 80.11 305.46 80.09Q305.78 79.85 306.31 79.85Q306.91 79.85 307.21 80.13Q307.51 80.41 307.6 80.96Q307.7 81.51 307.7 82.34L307.7 83.33Q306.6 83.76 305.6 84.22Q304.61 84.68 303.84 85.29Q303.55 85.53 303.3 85.82Q302.92 86.25 302.66 86.79Q302.23 87.68 302.23 88.97Q302.23 89.38 302.32 89.76Q302.4 90.15 302.58 90.52Q302.85 91.05 303.25 91.45Q303.4 91.59 303.57 91.72Q303.82 91.91 304.1 92.02ZM352.55 78.13L352.55 96.55L355.12 96.55L355.12 90.96Q355.58 91.44 356.15 91.82Q356.3 91.91 356.45 91.98Q356.92 92.19 357.48 92.19Q358.59 92.19 359.3 91.65Q359.46 91.53 359.6 91.39Q360.35 90.58 360.64 89.27Q360.93 87.96 360.93 86.5L360.93 83.14Q360.93 82.51 360.83 81.64Q360.82 81.56 360.81 81.47Q360.71 80.68 360.42 79.91Q360.18 79.26 359.75 78.77Q359.62 78.63 359.47 78.5Q359.43 78.46 359.39 78.42Q358.77 77.93 357.76 77.93Q356.87 77.93 356.22 78.32Q355.58 78.7 355.12 79.23L355.12 78.13L352.55 78.13ZM364.58 91.56Q365.47 92.19 367.1 92.19Q368.99 92.19 369.9 91.24Q370.02 91.12 370.12 90.99Q371.01 89.79 371.01 87.7L371.01 87.17L368.51 87.17L368.51 88.01Q368.51 88.71 368.4 89.22Q368.3 89.74 368 90.01Q367.7 90.29 367.13 90.29Q366.57 90.29 366.22 90.04Q365.88 89.79 365.72 89.26Q365.56 88.73 365.56 87.89L365.56 85.1L371.03 85.1L371.03 83.98Q371.03 82.08 370.77 80.73Q370.51 79.39 369.7 78.67Q369.69 78.66 369.68 78.65Q368.85 77.93 367.1 77.93Q365.51 77.93 364.61 78.56Q364.47 78.66 364.34 78.77Q363.66 79.38 363.35 80.41Q362.99 81.63 362.99 83.48L362.99 86.65Q362.99 88.44 363.34 89.68Q363.64 90.74 364.34 91.36Q364.45 91.47 364.58 91.56ZM395.92 78.13L395.92 96.55L398.49 96.55L398.49 90.96Q398.95 91.44 399.52 91.82Q399.67 91.91 399.82 91.98Q400.29 92.19 400.84 92.19Q401.96 92.19 402.67 91.65Q402.83 91.53 402.97 91.39Q403.72 90.58 404.01 89.27Q404.3 87.96 404.3 86.5L404.3 83.14Q404.3 82.51 404.2 81.64Q404.19 81.56 404.18 81.47Q404.08 80.68 403.79 79.91Q403.55 79.26 403.12 78.77Q402.99 78.63 402.84 78.5Q402.8 78.46 402.76 78.42Q402.14 77.93 401.13 77.93Q400.24 77.93 399.59 78.32Q398.95 78.7 398.49 79.23L398.49 78.13L395.92 78.13ZM141.14 78.13L141.14 92L143.7 92L143.7 80.07L146.63 80.07L146.63 92L149.2 92L149.2 78.13L141.14 78.13ZM172.72 78.13L172.72 92L176.73 92Q178.29 92 179.14 91.49Q179.61 91.21 179.92 90.82Q180.18 90.49 180.34 90.08Q180.69 89.16 180.69 87.96Q180.69 87.17 180.51 86.43Q180.37 85.84 180.05 85.38Q179.96 85.26 179.87 85.15Q179.83 85.11 179.8 85.07Q179.34 84.59 178.53 84.44Q179.51 84.14 179.91 83.49Q179.97 83.39 180.02 83.28Q180.38 82.47 180.36 81.44Q180.34 80.79 180.14 80.21Q180.07 80.01 179.98 79.81Q179.91 79.66 179.82 79.52Q179.47 78.96 178.83 78.59Q178.03 78.13 176.61 78.13L172.72 78.13ZM181.65 90.17L181.65 92.11L181.94 92.11Q183.21 92.11 184.01 91.75Q184.18 91.68 184.32 91.59Q184.91 91.22 185.3 90.52Q185.78 89.65 186.01 88.09Q186.24 86.52 186.35 84.15L186.57 80.07L189.02 80.07L189.02 92L191.59 92L191.59 78.13L184.31 78.13L184 84.15Q183.91 85.9 183.79 87.07Q183.67 88.23 183.44 88.91Q183.21 89.59 182.79 89.89Q182.37 90.17 181.65 90.17ZM204.28 78.13L204.28 92L206.85 92L206.85 85.83L210.14 85.83L210.14 92L212.71 92L212.71 78.13L210.14 78.13L210.14 83.96L206.85 83.96L206.85 78.13L204.28 78.13ZM215.3 78.13L215.3 92L217.39 92L221.54 82.58L221.54 92L223.65 92L223.65 78.13L221.64 78.13L217.46 87.46L217.46 78.13L215.3 78.13ZM272.32 93.51L272.32 95.48L272.64 95.48Q273.91 95.48 274.81 95.21Q275.68 94.96 276.25 94.39Q276.27 94.37 276.28 94.36Q276.86 93.77 277.07 92.76L280.39 78.13L277.79 78.13L276 88.49L274.13 78.13L271.53 78.13L274.31 89.93Q274.51 90.77 274.67 91.51Q274.84 92.26 274.84 92.48Q274.84 92.82 274.68 93.03Q274.64 93.07 274.6 93.11Q274.36 93.34 273.81 93.42Q273.26 93.51 272.32 93.51ZM312.81 78.13L312.67 92L314.83 92L314.83 83.76L317.4 90.63L318.19 90.63L320.75 83.72L320.75 92L322.92 92L322.77 78.13L320.88 78.13L317.78 86.65L314.71 78.13L312.81 78.13ZM325.43 78.13L325.43 92L327.53 92L331.67 82.58L331.67 92L333.79 92L333.79 78.13L331.77 78.13L327.6 87.46L327.6 78.13L325.43 78.13ZM341.9 78.13L341.9 92L344.46 92L344.46 80.07L347.39 80.07L347.39 92L349.96 92L349.96 78.13L341.9 78.13ZM372.11 90.29L372.11 95.52L373.99 95.52L374.21 92L381.4 92L381.62 95.52L383.49 95.52L383.49 90.17L381.81 90.17L381.81 78.13L375.55 78.13L375.5 79.95Q375.48 82.4 375.21 84.13Q374.95 85.85 374.49 87.03Q374.04 88.2 373.43 88.97Q372.84 89.74 372.11 90.29ZM385.27 78.13L385.27 92L387.83 92L387.83 80.07L390.76 80.07L390.76 92L393.33 92L393.33 78.13L385.27 78.13ZM406.63 78.13L406.63 92L408.72 92L412.87 82.58L412.87 92L414.98 92L414.98 78.13L412.97 78.13L408.79 87.46L408.79 78.13L406.63 78.13ZM419.15 86.11L416.54 92L419.3 92L421.58 86.48Q421.89 86.5 422.15 86.51Q422.42 86.52 422.8 86.52L422.8 92L425.35 92L425.35 78.13L422.66 78.13Q421.15 78.13 420.11 78.37Q419.08 78.6 418.46 79.1Q418.27 79.26 418.11 79.44Q417.75 79.85 417.55 80.41Q417.26 81.2 417.26 82.3Q417.26 83.26 417.45 84.03Q417.64 84.79 418.06 85.32Q418.18 85.46 418.31 85.59Q418.67 85.92 419.15 86.11ZM429.52 80.04L429.52 92L432.09 92L432.09 80.04L434.71 80.04L434.71 78.13L426.93 78.13L426.93 80.04L429.52 80.04ZM436.27 78.13L436.27 92L438.36 92L442.51 82.58L442.51 92L444.62 92L444.62 78.13L442.61 78.13L438.43 87.46L438.43 78.13L436.27 78.13ZM448.79 86.11L446.18 92L448.94 92L451.22 86.48Q451.53 86.5 451.79 86.51Q452.06 86.52 452.44 86.52L452.44 92L454.99 92L454.99 78.13L452.3 78.13Q450.79 78.13 449.75 78.37Q448.72 78.6 448.1 79.1Q447.91 79.26 447.75 79.44Q447.39 79.85 447.19 80.41Q446.9 81.2 446.9 82.3Q446.9 83.26 447.09 84.03Q447.28 84.79 447.7 85.32Q447.82 85.46 447.95 85.59Q448.31 85.92 448.79 86.11ZM422.67 85.03L422.52 85.03Q420.79 85.01 420.17 84.34Q419.56 83.67 419.56 82.3Q419.56 81.31 419.83 80.73Q419.91 80.54 420.03 80.39Q420.3 80.06 420.75 79.87Q421.41 79.58 422.54 79.58L422.8 79.58L422.8 85.03L422.67 85.03ZM452.31 85.03L452.16 85.03Q450.43 85.01 449.81 84.34Q449.2 83.67 449.2 82.3Q449.2 81.31 449.47 80.73Q449.55 80.54 449.67 80.39Q449.94 80.06 450.39 79.87Q451.05 79.58 452.18 79.58L452.44 79.58L452.44 85.03L452.31 85.03ZM199.43 83.72L196.48 83.72L196.48 82.97Q196.48 81.77 196.6 81.09Q196.72 80.41 197.04 80.12Q197.37 79.83 197.99 79.83Q198.64 79.83 198.94 80.13Q199.24 80.43 199.33 81.01Q199.43 81.6 199.43 82.47L199.43 83.72ZM231.52 83.72L228.57 83.72L228.57 82.97Q228.57 81.77 228.69 81.09Q228.81 80.41 229.13 80.12Q229.46 79.83 230.08 79.83Q230.73 79.83 231.03 80.13Q231.33 80.43 231.42 81.01Q231.52 81.6 231.52 82.47L231.52 83.72ZM257.83 83.72L254.87 83.72L254.87 82.97Q254.87 81.77 254.99 81.09Q255.11 80.41 255.44 80.12Q255.76 79.83 256.38 79.83Q257.04 79.83 257.33 80.13Q257.63 80.43 257.73 81.01Q257.83 81.6 257.83 82.47L257.83 83.72ZM368.51 83.72L365.56 83.72L365.56 82.97Q365.56 81.77 365.68 81.09Q365.8 80.41 366.12 80.12Q366.45 79.83 367.07 79.83Q367.72 79.83 368.02 80.13Q368.32 80.43 368.41 81.01Q368.51 81.6 368.51 82.47L368.51 83.72ZM156.94 89.96Q156.66 90.17 156.21 90.17Q155.64 90.17 155.18 89.99Q154.72 89.81 154.36 89.55L154.36 80.67Q154.7 80.38 155.15 80.16Q155.39 80.05 155.64 80Q155.87 79.95 156.11 79.95Q156.63 79.95 156.93 80.2Q157.02 80.28 157.1 80.38Q157.41 80.81 157.51 81.54Q157.6 82.27 157.6 83.14L157.6 86.5Q157.6 87.51 157.53 88.35Q157.46 89.19 157.17 89.68Q157.08 89.85 156.94 89.96ZM247.01 89.96Q246.73 90.17 246.28 90.17Q245.71 90.17 245.25 89.99Q244.8 89.81 244.43 89.55L244.43 80.67Q244.77 80.38 245.22 80.16Q245.46 80.05 245.71 80Q245.94 79.95 246.18 79.95Q246.7 79.95 247 80.2Q247.1 80.28 247.17 80.38Q247.49 80.81 247.58 81.54Q247.67 82.27 247.67 83.14L247.67 86.5Q247.67 87.51 247.6 88.35Q247.53 89.19 247.25 89.68Q247.15 89.85 247.01 89.96ZM287.09 89.96Q286.81 90.17 286.36 90.17Q285.79 90.17 285.33 89.99Q284.88 89.81 284.51 89.55L284.51 80.67Q284.85 80.38 285.3 80.16Q285.54 80.05 285.79 80Q286.02 79.95 286.26 79.95Q286.78 79.95 287.08 80.2Q287.18 80.28 287.25 80.38Q287.57 80.81 287.66 81.54Q287.75 82.27 287.75 83.14L287.75 86.5Q287.75 87.51 287.68 88.35Q287.61 89.19 287.32 89.68Q287.23 89.85 287.09 89.96ZM357.7 89.96Q357.42 90.17 356.97 90.17Q356.4 90.17 355.94 89.99Q355.48 89.81 355.12 89.55L355.12 80.67Q355.46 80.38 355.91 80.16Q356.15 80.05 356.4 80Q356.63 79.95 356.87 79.95Q357.39 79.95 357.69 80.2Q357.78 80.28 357.86 80.38Q358.17 80.81 358.27 81.54Q358.36 82.27 358.36 83.14L358.36 86.5Q358.36 87.51 358.29 88.35Q358.22 89.19 357.93 89.68Q357.84 89.85 357.7 89.96ZM401.07 89.96Q400.79 90.17 400.34 90.17Q399.77 90.17 399.31 89.99Q398.85 89.81 398.49 89.55L398.49 80.67Q398.83 80.38 399.28 80.16Q399.52 80.05 399.77 80Q400 79.95 400.24 79.95Q400.76 79.95 401.06 80.2Q401.15 80.28 401.23 80.38Q401.54 80.81 401.64 81.54Q401.73 82.27 401.73 83.14L401.73 86.5Q401.73 87.51 401.66 88.35Q401.59 89.19 401.3 89.68Q401.21 89.85 401.07 89.96ZM379.34 90.17L374.61 90.17Q375.18 89.79 375.7 89.16Q376.22 88.54 376.61 87.47Q377.01 86.41 377.24 84.71Q377.47 83.02 377.49 80.48L377.54 79.97L379.34 79.97L379.34 90.17ZM176.49 83.72L175.24 83.72L175.24 80L176.23 80Q177.09 80 177.6 80.38Q177.62 80.4 177.64 80.41Q178.1 80.8 178.1 81.75Q178.1 82.85 177.67 83.28Q177.59 83.36 177.49 83.43Q177.09 83.72 176.49 83.72ZM166.31 89.94Q166.16 89.98 166 89.98Q165.68 89.98 165.44 89.84Q165.23 89.72 165.09 89.5Q164.78 89.02 164.78 88.18Q164.78 87.58 165.01 87.11Q165.06 87 165.13 86.89Q165.33 86.55 165.63 86.28Q166.03 85.9 166.55 85.57Q167.09 85.23 167.68 84.89L167.68 88.83Q167.59 89 167.32 89.27Q167.06 89.55 166.72 89.76Q166.53 89.89 166.31 89.94ZM306.33 89.94Q306.18 89.98 306.02 89.98Q305.69 89.98 305.45 89.84Q305.25 89.72 305.1 89.5Q304.79 89.02 304.79 88.18Q304.79 87.58 305.02 87.11Q305.08 87 305.15 86.89Q305.35 86.55 305.64 86.28Q306.04 85.9 306.57 85.57Q307.1 85.23 307.7 84.89L307.7 88.83Q307.61 89 307.34 89.27Q307.07 89.55 306.74 89.76Q306.54 89.89 306.33 89.94ZM176.16 90.05L175.24 90.05L175.24 85.56L176.27 85.56Q176.83 85.56 177.25 85.68Q177.31 85.7 177.38 85.73Q177.71 85.88 177.92 86.29Q178.17 86.79 178.17 87.86Q178.17 88.78 177.9 89.26Q177.69 89.63 177.37 89.81Q177.27 89.86 177.16 89.9Q176.71 90.05 176.16 90.05Z" fill="#FFFDFD" fill-opacity="1.000000" fill-rule="evenodd"/>
</svg>
